<?xml version="1.0" encoding="utf-8"?>
<!-- Generator: Adobe Illustrator 20.1.0, SVG Export Plug-In . SVG Version: 6.00 Build 0)  -->
<svg version="1.1" id="Layer_1" xmlns="http://www.w3.org/2000/svg" xmlns:xlink="http://www.w3.org/1999/xlink" x="0px" y="0px"
	 viewBox="0 0 92 1030" style="enable-background:new 0 0 92 1030;" xml:space="preserve">
<style type="text/css">
	.st0{clip-path:url(#SVGID_2_);fill:#FFFFFF;}
</style>
<g>
	<g>
		<g>
			<defs>
				<rect id="SVGID_1_" x="8.8" y="20" width="74.3" height="990"/>
			</defs>
			<clipPath id="SVGID_2_">
				<use xlink:href="#SVGID_1_"  style="overflow:visible;"/>
			</clipPath>
			<path class="st0" d="M40.4,71.4v22.4c3.4-2.2,9.4-6.1,13.8-9h0.1l3.3-2l-3.4-2.2L40.4,71.4z M38.3,98.9c-0.2,0-0.4-0.1-0.6-0.2
				l-0.9-0.5V64.6l19.4,13l8.2,5.3l-8.3,4.9c-0.4,0.2-4.3,2.8-8.2,5.4C40.8,97.8,39.2,98.9,38.3,98.9 M13.5,114.9v23.7l64.2-41.3
				V70.2L13.5,26.8v22.9l10.7,7.2V108L13.5,114.9z M9.9,145.1V113l10.7-7V58.8L9.9,51.6V20l71.4,48.3v31L9.9,145.1z M63.3,230.4
				h14.4v-78.6H13.5v21.8h23.3V228h14v-54.4h12.5V230.4z M81.2,234.1H59.6v-56.8h-5.3v54.4H33.1v-54.4H9.8v-29h71.5v85.8H81.2z
				 M63.5,339.7h14.2V246H63.5v35.6h-50v22.5h50V339.7z M81.2,343.2H59.9v-35.6h-50V278h50v-35.6h21.4v100.8H81.2z M13.5,435.2h14.2
				v-59.5H39V433h13.3v-57.2h11.2v58.7h14.2v-80.2H13.5V435.2z M31.3,438.8H9.9v-88.2h71.4V438H59.8v-58.7h-4v57.2H35.3v-57.2h-4
				V438.8z M53.5,476.4v34.5c0,5.1,0.8,6.2,1.6,6.7c0.6,0.4,1.4,0.5,2,0.5c0.7,0,1.3-0.1,1.8-0.5c1.5-1.1,2.1-3,2.1-7.1v-34.1H53.5z
				 M57,521.7c-1,0-2.5-0.1-3.8-1c-2.8-1.6-3.4-5.1-3.4-9.8v-38.1h14.7v37.7c0,4.5-0.6,8-3.6,10.1l0,0
				C59.7,521.2,58.5,521.7,57,521.7 M13.5,525.1v23.2l27.8-24.6l0.4,3.5c0.7,6.6,4.6,10.4,6.3,11.8c2.8,2.2,7.1,3.5,11.7,3.5
				c5.3,0,9-1.5,11.9-4.6c4.1-4.7,6.2-12.9,6.2-23.9v-63H13.6v21.8h24.8v30.7L13.5,525.1z M9.9,556.2v-32.9l24.9-21.6v-25.4H9.9v-29
				h71.4V514c0,12-2.4,20.8-7.1,26.3c-3.5,3.9-8.3,5.8-14.6,5.8c-5.4,0-10.6-1.6-14-4.3l0,0c-1.7-1.4-5.4-5-7-11L9.9,556.2z
				 M13.5,651.5H50v-50.4H39v32.1l-2.5-1.1c-2.1-0.9-3.9-3.5-4.6-4.9c-3-4.9-4.7-13.3-4.7-23.6c0-11.6,2.4-19.8,7.2-24.4
				c3.1-2.8,6.8-4.1,11.1-4.1c4.5,0,8.3,1.4,11.2,4.1c4.9,4.6,7.3,12.8,7.3,24.4c0,9.6-1.7,17.8-4.5,21.9c-0.1,0.2-0.2,0.3-0.3,0.5
				v23.5c0.3-0.1,0.5-0.2,0.8-0.4c12.2-6.2,18.8-22.3,18.8-45.2c0-19.6-5.1-35.1-14.4-43.7c-5.2-4.8-11.6-7.2-18.8-7.2
				c-8,0-14.7,2.4-20,7c-8.5,7.5-13.1,21.1-13.1,38.2c0,17.2,4.4,27.2,8.1,32.6l1.8,2.6l-8.9,0.5C13.5,633.9,13.5,651.5,13.5,651.5z
				 M53.6,655.2H9.8v-24.4l6-0.4c-3.5-6.2-7.1-16.3-7.1-32c0-18.2,5.1-32.7,14.3-40.9c5.9-5.3,13.5-7.9,22.4-7.9
				c8.2,0,15.3,2.7,21.3,8.1C77,567,82.4,583,82.4,604c0,24.6-7.1,41.4-20.7,48.5c-1.1,0.6-2.3,1.1-3.8,1.5l-2.3,0.6V625l0.3-0.5
				c0.2-0.3,0.4-0.6,0.6-1c1.9-2.8,3.9-9.5,3.9-20c0-10.6-2.1-17.9-6.2-21.8c-2.2-2.1-5.2-3.2-8.8-3.2c-3.5,0-6.3,1-8.7,3.2
				c-4,3.8-6.1,11.4-6.1,21.8c0,9.5,1.5,17.4,4.2,21.8c0.1,0.2,0.3,0.5,0.4,0.7v-28.6h18.4V655.2z M13.5,739.8h15.8v-50h48.4v-21.9
				H13.5V739.8z M32.9,743.4h-23v-79.1h71.4v29.1H32.8v50H32.9z M45.9,775.5c-9.1,0-14.7,10.3-14.7,26.9c0,13.1,3.9,27.1,14.7,27.1
				c7,0,14.5-7.1,14.5-27.2C60.5,782.5,52.6,775.5,45.9,775.5 M45.9,833.2c-8.8,0-18.3-8.1-18.3-30.7c0-14.8,4.8-30.5,18.3-30.5
				c8.4,0,18.1,8,18.1,30.5C64.1,831.7,49,833.2,45.9,833.2 M46.2,749.5c-8.4,0-15.2,2.8-20.7,8.6c-8.7,9-13,23.9-13,44.4
				c0,21.4,4.3,36.5,12.8,44.8c5.3,5.4,12.3,8.2,20.7,8.2c8.6,0,15.1-2.6,20.5-8.2c8.8-9.2,13-23.8,13-44.8
				c0-20.8-4.6-35.5-14.1-44.9C60.3,752.2,54,749.5,46.2,749.5 M46,859.2c-9.4,0-17.2-3.1-23.2-9.2c-9.2-9-13.9-25-13.9-47.4
				c0-21.5,4.7-37.2,14-46.9c6.1-6.4,14-9.7,23.3-9.7c8.8,0,16,3,21.9,9.2c10.1,10.1,15.1,25.7,15.1,47.4c0,21.9-4.6,37.4-14,47.3
				l0,0C63,856.2,55.7,859.2,46,859.2 M13.5,975.5l64.2,28.9V984l-46.3-20.3l46.3-18.2v-24.6l-46.3-18.2l46.3-20.3v-23.9l-64.2,29.7
				v25.5l44.9,18.1l-44.9,18.1V975.5z M81.2,1010L9.9,977.9v-30.3l38.9-15.7L9.9,916.2V886l71.4-33v31.9l-40.5,17.7l40.5,15.9V948
				l-40.5,15.9l40.5,17.7C81.3,981.6,81.3,1010,81.2,1010z"/>
		</g>
	</g>
</g>
</svg>
