<?xml version="1.0" encoding="utf-8"?>
<!-- Generator: Adobe Illustrator 20.1.0, SVG Export Plug-In . SVG Version: 6.00 Build 0)  -->
<svg version="1.1" id="Layer_1" xmlns="http://www.w3.org/2000/svg" xmlns:xlink="http://www.w3.org/1999/xlink" x="0px" y="0px"
	 viewBox="0 0 1000 92" style="enable-background:new 0 0 1000 92;" xml:space="preserve">
<style type="text/css">
	.st0{clip-path:url(#SVGID_2_);}
</style>
<g>
	<defs>
		<rect id="SVGID_1_" x="5" y="8.8" width="990" height="74.3"/>
	</defs>
	<clipPath id="SVGID_2_">
		<use xlink:href="#SVGID_1_"  style="overflow:visible;"/>
	</clipPath>
	<path class="st0" d="M56.4,51.6h22.4c-2.2-3.4-6.1-9.4-9-13.8l0-0.1l-2-3.3l-2.2,3.4L56.4,51.6z M83.9,53.7c0,0.2-0.1,0.4-0.2,0.6
		l-0.5,0.9H49.6l13-19.4l5.3-8.2l4.9,8.3c0.2,0.4,2.8,4.3,5.4,8.2C82.8,51.2,83.9,52.8,83.9,53.7 M99.9,78.5h23.7L82.3,14.3H55.2
		L11.8,78.5h22.9l7.2-10.7H93L99.9,78.5z M130.2,82.1H98L91,71.4H43.8l-7.2,10.7H5l48.3-71.4h31L130.2,82.1z M215.5,28.7V14.3h-78.6
		v64.2h21.8V55.2h54.4v-14h-54.4V28.7H215.5z M219.1,10.7v21.7h-56.8v5.3h54.4v21.2h-54.4v23.3h-29V10.7H219.1z M324.7,28.5V14.3
		h-93.7v14.2h35.6v50h22.5v-50H324.7z M328.3,10.7v21.4h-35.6v50h-29.6v-50h-35.6V10.7H328.3z M420.2,78.5V64.3h-59.5V53H418V39.7
		h-57.2V28.5h58.7V14.3h-80.2v64.2H420.2z M423.8,60.7v21.4h-88.2V10.7H423v21.5h-58.7v4h57.2v20.5h-57.2v4H423.8z M461.4,38.5h34.5
		c5.1,0,6.2-0.8,6.7-1.6c0.4-0.6,0.5-1.4,0.5-2c0-0.7-0.1-1.3-0.5-1.8c-1.1-1.5-3-2.1-7.1-2.1h-34.1V38.5z M506.7,35
		c0,1-0.1,2.5-1,3.8c-1.6,2.8-5.1,3.4-9.8,3.4h-38.1V27.5h37.7c4.5,0,8,0.6,10.1,3.6l0,0C506.3,32.3,506.7,33.5,506.7,35
		 M510.1,78.5h23.2l-24.6-27.8l3.5-0.4c6.6-0.7,10.4-4.6,11.8-6.3c2.2-2.8,3.5-7.1,3.5-11.7c0-5.3-1.5-9-4.6-11.9
		c-4.7-4.1-12.9-6.2-23.9-6.2H436v64.2h21.8V53.6h30.7L510.1,78.5z M541.3,82.1h-32.9l-21.6-24.9h-25.4v24.9h-29V10.7H499
		c12,0,20.8,2.4,26.3,7.1c3.9,3.5,5.8,8.3,5.8,14.6c0,5.4-1.6,10.6-4.3,14l0,0c-1.4,1.7-5,5.4-11,7L541.3,82.1z M636.6,78.5V42
		h-50.4v11h32.1l-1.1,2.5c-0.9,2.1-3.5,3.9-4.9,4.6c-4.9,3-13.3,4.7-23.6,4.7c-11.6,0-19.8-2.4-24.4-7.2c-2.8-3.1-4.1-6.8-4.1-11.1
		c0-4.5,1.4-8.3,4.1-11.2c4.6-4.9,12.8-7.3,24.4-7.3c9.6,0,17.8,1.7,21.9,4.5c0.2,0.1,0.3,0.2,0.5,0.3h23.5
		c-0.1-0.3-0.2-0.5-0.4-0.8C628,19.8,611.9,13.2,589,13.2c-19.6,0-35.1,5.1-43.7,14.4c-4.8,5.2-7.2,11.6-7.2,18.8c0,8,2.4,14.7,7,20
		c7.5,8.5,21.1,13.1,38.2,13.1c17.2,0,27.2-4.4,32.6-8.1l2.6-1.8l0.5,8.9H636.6z M640.2,38.4v43.7h-24.4l-0.4-6
		c-6.2,3.5-16.3,7.1-32,7.1c-18.2,0-32.7-5.1-40.9-14.3c-5.3-5.9-7.9-13.5-7.9-22.4c0-8.2,2.7-15.3,8.1-21.3
		C552.1,15,568.1,9.6,589,9.6c24.6,0,41.4,7.1,48.5,20.7c0.6,1.1,1.1,2.3,1.5,3.8l0.6,2.3h-29.5l-0.5-0.3c-0.3-0.2-0.6-0.4-1-0.6
		c-2.8-1.9-9.5-3.9-20-3.9c-10.6,0-17.9,2.1-21.8,6.2c-2.1,2.2-3.2,5.2-3.2,8.8c0,3.5,1,6.3,3.2,8.7c3.8,4,11.4,6.1,21.8,6.1
		c9.5,0,17.4-1.5,21.8-4.2c0.2-0.1,0.5-0.3,0.7-0.4h-28.6V38.4H640.2z M724.8,78.5V62.7h-50V14.3h-21.9v64.2H724.8z M728.4,59.1v23
		h-79.1V10.7h29.1v48.5H728.4z M760.5,46.1c0,9.1,10.3,14.7,26.9,14.7c13.1,0,27.1-3.9,27.1-14.7c0-7-7.1-14.5-27.2-14.5
		C767.6,31.5,760.5,39.4,760.5,46.1 M818.2,46.1c0,8.8-8.1,18.3-30.7,18.3c-14.8,0-30.5-4.8-30.5-18.3c0-8.4,8-18.1,30.5-18.1
		C816.7,27.9,818.2,43,818.2,46.1 M734.6,45.8c0,8.4,2.8,15.2,8.6,20.7c9,8.7,23.9,13,44.4,13c21.4,0,36.5-4.3,44.8-12.8
		c5.4-5.3,8.2-12.3,8.2-20.7c0-8.6-2.6-15.1-8.2-20.5c-9.2-8.8-23.8-13-44.8-13c-20.8,0-35.5,4.6-44.9,14.1
		C737.2,31.7,734.6,38,734.6,45.8 M844.2,46c0,9.4-3.1,17.2-9.2,23.2c-9,9.2-25,13.9-47.4,13.9c-21.5,0-37.2-4.7-46.9-14
		c-6.4-6.1-9.7-14-9.7-23.3c0-8.8,3-16,9.2-21.9c10.1-10.1,25.7-15.1,47.4-15.1c21.9,0,37.4,4.6,47.3,14l0,0
		C841.2,29,844.2,36.3,844.2,46 M960.6,78.5l28.9-64.2H969l-20.3,46.3l-18.2-46.3h-24.6l-18.2,46.3l-20.3-46.3h-23.9l29.7,64.2h25.5
		l18.1-44.9l18.1,44.9H960.6z M995,10.7l-32.1,71.4h-30.3l-15.7-38.9l-15.7,38.9H871l-33-71.4h31.9l17.7,40.5l15.9-40.5H933
		l15.9,40.5l17.7-40.5H995z"/>
</g>
</svg>
