<svg id="Layer_1" data-name="Layer 1" xmlns="http://www.w3.org/2000/svg" width="1000" height="80" viewBox="0 0 1000 80">
  <g>
    <path class="cls-1" d="M62.11,66.79H40.51V49.48L5,13.69H31.18L51.6,33.8,72,13.69h25.6L62.11,49.41V66.79ZM43.2,64.1H59.42V48.3L91.1,16.38h-18L51.6,37.58,30.08,16.38H11.46l31.74,32V64.1Z"/>
    <path class="cls-1" d="M131.12,67.57c-15.95,0-27.68-3.51-34.88-10.44A23,23,0,0,1,89,39.82a21.39,21.39,0,0,1,6.81-16.27c7.54-7.54,19.08-11.22,35.27-11.22s27.78,3.42,35.14,10.44h0c4.73,4.53,6.93,10,6.93,17.17,0,7-2.31,12.81-6.86,17.29C159.62,64.09,147.76,67.57,131.12,67.57Zm0-52.54c-15.43,0-26.36,3.42-33.39,10.45a18.85,18.85,0,0,0-6,14.35,20.16,20.16,0,0,0,6.36,15.36c6.68,6.43,17.79,9.7,33,9.7,15.9,0,27.11-3.21,33.31-9.54,4-4,6.07-9.14,6.07-15.39,0-6.4-1.94-11.24-6.1-15.23C157.56,18.2,146.67,15,131.12,15Zm-0.06,38.6c-16.74,0-22.71-7-22.71-13.61,0-6.22,5.93-13.48,22.64-13.48,16.89,0,22.9,7,22.9,13.48S147.89,53.62,131.05,53.62ZM131,29.23c-14.73,0-20,5.81-20,10.79,0,6.73,7.67,10.92,20,10.92,14.86,0,20.15-5.64,20.15-10.92S145.89,29.23,131,29.23Z"/>
    <path class="cls-1" d="M215.48,67.5c-23.76,0-36.84-9.39-36.84-26.45V13.69h21.79v28c0,5.91,5.89,9.31,16.15,9.31,9.91,0,15.82-3.48,15.82-9.31v-28h21.54V43.24C253.94,58.89,240.28,67.5,215.48,67.5ZM181.32,16.38V41c0,20.68,21.4,23.76,34.16,23.76,13.36,0,35.77-2.8,35.77-21.57V16.38H235.09V41.69c0,7.4-7.09,12-18.51,12-11.79,0-18.84-4.48-18.84-12V16.38H181.32Z"/>
    <path class="cls-1" d="M332.16,67.57c-18,0-30.78-4.55-37-13.14a24.53,24.53,0,0,1-4.32-14.28A23,23,0,0,1,295,26.51c6.6-9,19.54-13.79,37.43-13.79,13.91,0,32,3,38.9,17.08A20.3,20.3,0,0,1,373,36.26l0.16,1.49H350.72l-0.29-1a5,5,0,0,0-1-1.74c-2-2.51-7.49-5.11-17.14-5.11-9.21,0-15.84,2.32-18.2,6.37a7.55,7.55,0,0,0-.91,4,7.24,7.24,0,0,0,1,3.83c2.46,3.95,9.25,6.32,18.15,6.32,9.71,0,15.51-1.64,17.72-5a2.9,2.9,0,0,0,.5-1.41l0.13-1.19h22.72l-0.25,1.56a28.92,28.92,0,0,1-1.86,6.95C366.15,62.25,353.36,67.57,332.16,67.57Zm0.26-52.15c-17,0-29.18,4.39-35.25,12.68a20.29,20.29,0,0,0-3.61,12,21.56,21.56,0,0,0,3.82,12.71c5.66,7.86,17.69,12,34.79,12,20,0,32-4.81,36.67-14.72h0a21,21,0,0,0,1.35-4.65H352.94A4.61,4.61,0,0,1,352.2,47c-2.73,4.16-9.07,6.13-19.91,6.13-4.72,0-16.16-.74-20.44-7.6a9.86,9.86,0,0,1-1.36-5.23,10.12,10.12,0,0,1,1.29-5.34c2.89-5,10.18-7.69,20.52-7.69,9,0,16.19,2.27,19.19,6.06a7.28,7.28,0,0,1,1.15,1.75h17.49a16.39,16.39,0,0,0-1.23-4.1C363.9,20.8,351.28,15.41,332.42,15.41Z"/>
    <path class="cls-1" d="M461.38,66.79h-24l-5.16-7.94H397.16l-5.36,7.94H368.28l35.9-53.1h23.07ZM438.87,64.1h17.59L425.78,16.38H405.61L373.35,64.1h17l5.36-7.94h38ZM425.62,46.85H401.47l9.66-14.42,3.93-6.13,3.68,6.16,4,6.12c4.45,6.82,4.45,6.82,4,7.56l-0.38.71h-0.8Zm-19.1-2.69h16.65c-1.65-2.55-4.55-7-6.68-10.25l0,0L415,31.4l-1.6,2.5Z"/>
    <path class="cls-1" d="M536.1,66.79H515.65L484.59,39.38V66.79h-21V13.69H485l30.29,26.7V13.69H536.1v53.1ZM516.67,64.1h16.74V16.38H518v30l-34-30h-17.7V64.1H481.9V33.42Z"/>
    <path class="cls-1" d="M613.1,66.79H591V29.61H564.58V13.69h75V29.61H613.1V66.79ZM593.74,64.1h16.67V26.92h26.46V16.38h-69.6V26.92h26.46V64.1Z"/>
    <path class="cls-1" d="M719.59,66.79H675.45V13.69h44.14c14.61,0,24.26,4.26,28.69,12.66a27,27,0,0,1,2.93,13,32.12,32.12,0,0,1-2.78,13.82C744.06,62.21,734.35,66.79,719.59,66.79ZM678.14,64.1h41.45C733.24,64.1,742.12,60,746,52a29.44,29.44,0,0,0,2.51-12.65,24.38,24.38,0,0,0-2.61-11.75c-3.93-7.46-12.78-11.24-26.32-11.24H678.14V64.1Zm38.29-10.22H694.36V26.54h22.32c7.43,0,11.91,2,14.1,6.21a18.36,18.36,0,0,1,1.44,7.17h0a16.29,16.29,0,0,1-1.51,7.94C728.44,52,723.91,53.88,716.42,53.88ZM697,51.19h19.38c6.4,0,10.19-1.46,11.93-4.6A13.73,13.73,0,0,0,729.54,40a15.77,15.77,0,0,0-1.18-6.07c-1.67-3.22-5.28-4.69-11.68-4.69H697v22Z"/>
    <path class="cls-1" d="M821.82,66.79H756.26V13.69h65v16H777.6V32.6h42.53V47.88H777.6v3h44.21V66.79ZM759,64.1h60.18V53.56H774.92V45.19h42.53v-9.9H774.92V27h43.63V16.38H759V64.1Z"/>
    <path class="cls-1" d="M900.63,66.79H880.19L849.12,39.38V66.79h-21V13.69h21.41l30.29,26.7V13.69h20.76v53.1ZM881.21,64.1h16.74V16.38H882.56v30l-34-30h-17.7V64.1h15.58V33.42Z"/>
    <path class="cls-1" d="M959.55,66.79H938V49.48L902.44,13.69h26.18L949,33.8,969.4,13.69H995L959.55,49.41V66.79ZM940.64,64.1h16.22V48.3l31.68-31.92h-18L949,37.58l-21.53-21.2H908.9l31.74,32V64.1Z"/>
    <path class="cls-1" d="M558.51,36.34H541.22V13.69h17.29V36.34Zm-14.6-2.69h11.91V16.38H543.91V33.65Z"/>
  </g>
</svg>
