<?xml version="1.0" encoding="utf-8"?>
<!-- Generator: Adobe Illustrator 20.1.0, SVG Export Plug-In . SVG Version: 6.00 Build 0)  -->
<svg version="1.1" id="Layer_1" xmlns="http://www.w3.org/2000/svg" xmlns:xlink="http://www.w3.org/1999/xlink" x="0px" y="0px"
	 viewBox="0 0 80 1000" style="enable-background:new 0 0 80 1000;" xml:space="preserve">
<style type="text/css">
	.st0{fill:#FFFFFF;}
</style>
<g>
	<path class="st0" d="M13.2,62.1V40.5h17.3L66.3,5v26.2L46.2,51.6L66.3,72v25.6L30.5,62.1H13.2z M15.9,43.2v16.2h15.8l31.9,31.7v-18
		L42.4,51.6l21.2-21.5V11.5l-32,31.7H15.9z"/>
	<path class="st0" d="M12.4,131.1c0-15.9,3.5-27.7,10.4-34.9c4.5-4.8,10.8-7.4,17.3-7.2c6.2-0.2,12.1,2.3,16.3,6.8
		c7.5,7.5,11.2,19.1,11.2,35.3s-3.4,27.8-10.4,35.1l0,0c-4.5,4.7-10,6.9-17.2,6.9c-7,0-12.8-2.3-17.3-6.9
		C15.9,159.6,12.4,147.8,12.4,131.1z M64.9,131.1c0-15.4-3.4-26.4-10.4-33.4c-3.7-4-8.9-6.2-14.4-6c-5.8-0.2-11.4,2.1-15.4,6.4
		c-6.4,6.7-9.7,17.8-9.7,33c0,15.9,3.2,27.1,9.5,33.3c4,4,9.1,6.1,15.4,6.1c6.4,0,11.2-1.9,15.2-6.1
		C61.8,157.6,64.9,146.7,64.9,131.1L64.9,131.1z M26.3,131.1c0-16.7,7-22.7,13.6-22.7c6.2,0,13.5,5.9,13.5,22.6
		c0,16.9-7,22.9-13.5,22.9S26.3,147.9,26.3,131.1L26.3,131.1z M50.7,131c0-14.7-5.8-20-10.8-20c-6.7,0-10.9,7.7-10.9,20
		c0,14.9,5.6,20.1,10.9,20.1S50.7,145.9,50.7,131z"/>
	<path class="st0" d="M12.4,215.5c0-23.8,9.4-36.8,26.5-36.8h27.4v21.8h-28c-5.9,0-9.3,5.9-9.3,16.1c0,9.9,3.5,15.8,9.3,15.8h28
		v21.5H36.7C21.1,253.9,12.4,240.3,12.4,215.5z M63.6,181.3H39c-20.7,0-23.8,21.4-23.8,34.2c0,13.4,2.8,35.8,21.6,35.8h26.8v-16.2
		H38.3c-7.4,0-12-7.1-12-18.5c0-11.8,4.5-18.8,12-18.8h25.3V181.3z"/>
	<path class="st0" d="M12.4,332.2c0-18,4.5-30.8,13.1-37c4.2-2.9,9.2-4.4,14.3-4.3c4.9-0.1,9.6,1.4,13.6,4.2
		c9,6.6,13.8,19.5,13.8,37.4c0,13.9-3,32-17.1,38.9c-2,0.9-4.2,1.5-6.5,1.7l-1.5,0.2v-22.4l1-0.3c0.6-0.2,1.2-0.6,1.7-1
		c2.5-2,5.1-7.5,5.1-17.1c0-9.2-2.3-15.8-6.4-18.2c-1.2-0.7-2.6-1-4-0.9c-1.3,0-2.7,0.3-3.8,1c-4,2.5-6.3,9.2-6.3,18.1
		c0,9.7,1.6,15.5,5,17.7c0.4,0.3,0.9,0.5,1.4,0.5l1.2,0.1v22.7l-1.6-0.2c-2.4-0.3-4.7-1-7-1.9C17.7,366.1,12.4,353.4,12.4,332.2z
		 M64.5,332.4c0-17-4.4-29.2-12.7-35.2c-3.5-2.4-7.7-3.7-12-3.6c-4.5-0.1-9,1.2-12.7,3.8c-7.9,5.7-12,17.7-12,34.8
		c0,20,4.8,32,14.7,36.7l0,0c1.5,0.6,3.1,1.1,4.7,1.4V353c-0.6-0.1-1.1-0.4-1.6-0.7c-4.2-2.7-6.1-9.1-6.1-19.9
		c0-4.7,0.7-16.2,7.6-20.4c1.6-0.9,3.4-1.4,5.2-1.4c1.9-0.1,3.7,0.4,5.3,1.3c5,2.9,7.7,10.2,7.7,20.5c0,9-2.3,16.2-6.1,19.2
		c-0.5,0.5-1.1,0.9-1.8,1.1v17.5c1.4-0.2,2.8-0.6,4.1-1.2C59.2,363.9,64.5,351.3,64.5,332.4L64.5,332.4z"/>
	<path class="st0" d="M13.2,461.4v-24l7.9-5.2v-35.1l-7.9-5.4v-23.5l53.1,35.9v23.1L13.2,461.4z M15.9,438.9v17.6l47.7-30.7v-20.2
		l-47.7-32.3v17l7.9,5.4v38L15.9,438.9z M33.1,425.6v-24.1l14.4,9.7l6.1,3.9l-6.2,3.7l-6.1,4c-6.8,4.5-6.8,4.5-7.6,4l-0.7-0.4
		L33.1,425.6L33.1,425.6z M35.8,406.5v16.6c2.5-1.6,7-4.5,10.2-6.7l0,0l2.5-1.5l-2.5-1.6L35.8,406.5z"/>
	<path class="st0" d="M13.2,536.1v-20.4l27.4-31.1H13.2v-21h53.1V485l-26.7,30.3h26.7v20.8H13.2z M15.9,516.7v16.7h47.7V518h-30
		l30-34v-17.7H15.9v15.6h30.7L15.9,516.7z"/>
	<path class="st0" d="M13.2,613.1V591h37.2v-26.4h15.9v75h-16v-26.5H13.2z M15.9,593.7v16.7H53v26.5h10.5v-69.6H53v26.5L15.9,593.7
		L15.9,593.7z"/>
	<path class="st0" d="M13.2,719.6v-44.1h53.1v44.1c0,14.6-4.3,24.3-12.7,28.7c-4,2-8.5,3.1-13,2.9c-4.8,0.1-9.5-0.8-13.8-2.8
		C17.7,744.1,13.2,734.3,13.2,719.6z M15.9,678.1v41.5c0,13.6,4.1,22.5,12.1,26.4c4,1.8,8.3,2.6,12.7,2.5c4.1,0.1,8.1-0.8,11.8-2.6
		c7.5-3.9,11.2-12.8,11.2-26.3v-41.4H15.9V678.1z M26.1,716.4v-22.1h27.3v22.3c0,7.4-2,11.9-6.2,14.1c-2.3,1-4.7,1.4-7.2,1.4l0,0
		c-2.7,0.2-5.5-0.3-7.9-1.5C27.9,728.4,26.1,723.9,26.1,716.4L26.1,716.4z M28.8,697v19.4c0,6.4,1.5,10.2,4.6,11.9
		c2.1,0.9,4.3,1.4,6.6,1.2c2.1,0,4.1-0.4,6.1-1.2c3.2-1.7,4.7-5.3,4.7-11.7V697H28.8L28.8,697z"/>
	<path class="st0" d="M13.2,821.8v-65.6h53.1v65h-16v-43.7h-2.9V820H32.1v-42.5h-3v44.2L13.2,821.8L13.2,821.8z M15.9,759v60.2h10.5
		v-44.3h8.4v42.5h9.9v-42.5H53v43.6h10.6V759H15.9z"/>
	<path class="st0" d="M13.2,900.6v-20.4l27.4-31.1H13.2v-21h53.1v21.4l-26.7,30.3h26.7v20.8H13.2L13.2,900.6z M15.9,881.2V898h47.7
		v-15.4h-30l30-34v-17.7H15.9v15.6h30.7L15.9,881.2z"/>
	<path class="st0" d="M13.2,959.5V938h17.3l35.8-35.6v26.2L46.2,949l20.1,20.4V995l-35.7-35.5H13.2z M15.9,940.6v16.2h15.8
		l31.9,31.7v-18L42.4,949l21.2-21.5v-18.6l-32,31.7L15.9,940.6L15.9,940.6z"/>
	<path class="st0" d="M43.6,558.5v-17.3h22.7v17.3H43.6L43.6,558.5z M46.3,543.9v11.9h17.3v-11.9H46.3L46.3,543.9z"/>
</g>
</svg>
