<?xml version="1.0" encoding="utf-8"?>
<!-- Generator: Adobe Illustrator 20.1.0, SVG Export Plug-In . SVG Version: 6.00 Build 0)  -->
<svg version="1.1" id="Layer_1" xmlns="http://www.w3.org/2000/svg" xmlns:xlink="http://www.w3.org/1999/xlink" x="0px" y="0px"
	 viewBox="0 0 80 1000" style="enable-background:new 0 0 80 1000;" xml:space="preserve">
<style type="text/css">
	.st0{fill:#FFFFFF;}
</style>
<g>
	<path class="st0" d="M66.8,937.9v21.6H49.5L13.7,995v-26.2l20.1-20.4L13.7,928v-25.6l35.8,35.5H66.8z M64.1,956.8v-16.2H48.3
		l-31.9-31.7v18l21.2,21.5l-21.2,21.5v18.6l32-31.7H64.1z"/>
	<path class="st0" d="M67.6,868.9c0,15.9-3.5,27.7-10.4,34.9c-4.5,4.8-10.8,7.4-17.3,7.2c-6.2,0.2-12.1-2.3-16.3-6.8
		c-7.5-7.5-11.2-19.1-11.2-35.3c0-16.2,3.4-27.8,10.4-35.1l0,0c4.5-4.7,10-6.9,17.2-6.9c7,0,12.8,2.3,17.3,6.9
		C64.1,840.4,67.6,852.2,67.6,868.9z M15.1,868.9c0,15.4,3.4,26.4,10.4,33.4c3.7,4,8.9,6.2,14.4,6c5.8,0.2,11.4-2.1,15.4-6.4
		c6.4-6.7,9.7-17.8,9.7-33c0-15.9-3.2-27.1-9.5-33.3c-4-4-9.1-6.1-15.4-6.1c-6.4,0-11.2,1.9-15.2,6.1
		C18.2,842.4,15.1,853.3,15.1,868.9L15.1,868.9z M53.7,868.9c0,16.7-7,22.7-13.6,22.7c-6.2,0-13.5-5.9-13.5-22.6
		c0-16.9,7-22.9,13.5-22.9S53.7,852.1,53.7,868.9L53.7,868.9z M29.3,869c0,14.7,5.8,20,10.8,20c6.7,0,10.9-7.7,10.9-20
		c0-14.9-5.6-20.1-10.9-20.1C34.8,848.9,29.3,854.1,29.3,869z"/>
	<path class="st0" d="M67.6,784.5c0,23.8-9.4,36.8-26.5,36.8H13.7v-21.8h28c5.9,0,9.3-5.9,9.3-16.1c0-9.9-3.5-15.8-9.3-15.8h-28
		v-21.5h29.6C58.9,746.1,67.6,759.7,67.6,784.5z M16.4,818.7H41c20.7,0,23.8-21.4,23.8-34.2c0-13.4-2.8-35.8-21.6-35.8H16.4v16.2
		l25.3,0c7.4,0,12,7.1,12,18.5c0,11.8-4.5,18.8-12,18.8H16.4V818.7z"/>
	<path class="st0" d="M67.6,667.8c0,18-4.5,30.8-13.1,37c-4.2,2.9-9.2,4.4-14.3,4.3c-4.9,0.1-9.6-1.4-13.6-4.2
		c-9-6.6-13.8-19.5-13.8-37.4c0-13.9,3-32,17.1-38.9c2-0.9,4.2-1.5,6.5-1.7l1.5-0.2v22.4l-1,0.3c-0.6,0.2-1.2,0.6-1.7,1
		c-2.5,2-5.1,7.5-5.1,17.1c0,9.2,2.3,15.8,6.4,18.2c1.2,0.7,2.6,1,4,0.9c1.3,0,2.7-0.3,3.8-1c4-2.5,6.3-9.2,6.3-18.1
		c0-9.7-1.6-15.5-5-17.7c-0.4-0.3-0.9-0.5-1.4-0.5l-1.2-0.1v-22.7l1.6,0.2c2.4,0.3,4.7,1,7,1.9C62.3,633.9,67.6,646.6,67.6,667.8z
		 M15.5,667.6c0,17,4.4,29.2,12.7,35.2c3.5,2.4,7.7,3.7,12,3.6c4.5,0.1,9-1.2,12.7-3.8c7.9-5.7,12-17.7,12-34.8
		c0-20-4.8-32-14.7-36.7l0,0c-1.5-0.6-3.1-1.1-4.7-1.4V647c0.6,0.1,1.1,0.4,1.6,0.7c4.2,2.7,6.1,9.1,6.1,19.9
		c0,4.7-0.7,16.2-7.6,20.4c-1.6,0.9-3.4,1.4-5.2,1.4c-1.9,0.1-3.7-0.4-5.3-1.3c-5-2.9-7.7-10.2-7.7-20.5c0-9,2.3-16.2,6.1-19.2
		c0.5-0.5,1.1-0.9,1.8-1.1v-17.5c-1.4,0.2-2.8,0.6-4.1,1.2C20.8,636.1,15.5,648.7,15.5,667.6L15.5,667.6z"/>
	<path class="st0" d="M66.8,538.6v24l-7.9,5.2v35.1l7.9,5.4v23.5l-53.1-35.9v-23.1L66.8,538.6z M64.1,561.1v-17.6l-47.7,30.7v20.2
		l47.7,32.3v-17l-7.9-5.4v-38L64.1,561.1z M46.9,574.4v24.1l-14.4-9.7l-6.1-3.9l6.2-3.7l6.1-4c6.8-4.5,6.8-4.5,7.6-4l0.7,0.4
		L46.9,574.4L46.9,574.4z M44.2,593.5v-16.6c-2.5,1.6-7,4.5-10.2,6.7l0,0l-2.5,1.5l2.5,1.6L44.2,593.5z"/>
	<path class="st0" d="M66.8,463.9v20.4l-27.4,31.1l27.4,0v21l-53.1,0V515l26.7-30.3H13.7v-20.8H66.8z M64.1,483.3v-16.7H16.4V482h30
		l-30,34v17.7h47.7v-15.6l-30.7,0L64.1,483.3z"/>
	<path class="st0" d="M66.8,386.9V409H29.6v26.4H13.7v-75h16v26.5H66.8z M64.1,406.3v-16.7H27v-26.5H16.5v69.6H27v-26.5L64.1,406.3
		L64.1,406.3z"/>
	<path class="st0" d="M66.8,280.4v44.1H13.7v-44.1c0-14.6,4.3-24.3,12.7-28.7c4-2,8.5-3.1,13-2.9c4.8-0.1,9.5,0.8,13.8,2.8
		C62.3,255.9,66.8,265.7,66.8,280.4z M64.1,321.9v-41.5c0-13.6-4.1-22.5-12.1-26.4c-4-1.8-8.3-2.6-12.7-2.5
		c-4.1-0.1-8.1,0.8-11.8,2.6c-7.5,3.9-11.2,12.8-11.2,26.3v41.4h47.8V321.9z M53.9,283.6v22.1H26.6v-22.3c0-7.4,2-11.9,6.2-14.1
		c2.3-1,4.7-1.4,7.2-1.4l0,0c2.7-0.2,5.5,0.3,7.9,1.5C52.1,271.6,53.9,276.1,53.9,283.6L53.9,283.6z M51.2,303v-19.4
		c0-6.4-1.5-10.2-4.6-11.9c-2.1-0.9-4.3-1.4-6.6-1.2c-2.1,0-4.1,0.4-6.1,1.2c-3.2,1.7-4.7,5.3-4.7,11.7V303H51.2L51.2,303z"/>
	<path class="st0" d="M66.8,178.2v65.6H13.7v-65h16v43.7h2.9V180h15.3v42.5h3v-44.2L66.8,178.2L66.8,178.2z M64.1,241v-60.2H53.6
		v44.3h-8.4v-42.5h-9.9v42.5H27v-43.6H16.4V241H64.1z"/>
	<path class="st0" d="M66.8,99.4v20.4l-27.4,31.1h27.4v21H13.7v-21.4l26.7-30.3H13.7V99.4H66.8L66.8,99.4z M64.1,118.8V102H16.4
		v15.4h30l-30,34v17.7h47.7v-15.6H33.4L64.1,118.8z"/>
	<path class="st0" d="M66.8,40.5V62H49.5L13.7,97.6V71.4L33.8,51L13.7,30.6V5l35.7,35.5H66.8z M64.1,59.4V43.2H48.3L16.4,11.5v18
		L37.6,51L16.4,72.5v18.6l32-31.7L64.1,59.4L64.1,59.4z"/>
	<path class="st0" d="M36.4,441.5v17.3H13.7v-17.3H36.4L36.4,441.5z M33.7,456.1v-11.9H16.4v11.9H33.7L33.7,456.1z"/>
</g>
</svg>
