<svg id="Layer_1" data-name="Layer 1" xmlns="http://www.w3.org/2000/svg" width="1000" height="80" viewBox="0 0 1000 80">
  <path class="cls-1" d="M289.18,75.71H250.42v-8c-14.17-.36-24.68-3.74-31.25-10.07a22.27,22.27,0,0,1-7-16.74,20.7,20.7,0,0,1,6.59-15.74c7.3-7.3,18.47-10.85,34.13-10.85s26.88,3.3,34,10.1c4.58,4.38,6.71,9.66,6.71,16.62,0,6.77-2.23,12.39-6.63,16.73-3.41,3.47-8.26,6.07-14.43,7.74ZM253,73.11h27l-14.25-8.77,3.21-.67c7.16-1.48,12.61-4.1,16.21-7.77C289.06,52.06,291,47.06,291,41c0-6.2-1.88-10.88-5.91-14.74-6.61-6.31-17.14-9.38-32.2-9.38S227.42,20.2,220.61,27a18.24,18.24,0,0,0-5.8,13.88A19.51,19.51,0,0,0,221,55.75c6.28,6,16.63,9.19,30.77,9.37l1.29,0v8Zm-0.16-18.86c-16.2,0-22-6.8-22-13.17,0-6,5.74-13,21.91-13,16.34,0,22.16,6.74,22.16,13S269.15,54.24,252.86,54.24Zm-0.06-23.61c-14.25,0-19.31,5.62-19.31,10.44,0,6.52,7.42,10.57,19.37,10.57,14.38,0,19.5-5.46,19.5-10.57S267.22,30.63,252.79,30.63ZM21.35,67.75c-6.86,0-14.07-.43-15.21-0.57L5,67V50.77L6.48,51c0.77,0.1,8.24.17,12,.17,7.78,0,8.38-5.65,8.38-7.38V15.68H47.95V46.33C47.95,59.34,37.51,67.75,21.35,67.75ZM7.6,64.68c2.43,0.17,8.12.46,13.75,0.46,14.58,0,24-7.38,24-18.81V18.28H29.46V43.77c0,4.61-2.88,10-11,10-1.16,0-7.78,0-10.88-.12v11Zm126.86,2.37h-23.2l-5-7.68h-34l-5.18,7.68H44.38L79.12,15.68h22.32Zm-21.79-2.6h17L100,18.28H80.5L49.28,64.46H65.75l5.18-7.68h36.75ZM99.86,47.76H76.49l9.35-14,3.81-5.93,3.56,6,3.87,5.92c4.3,6.6,4.3,6.6,3.92,7.31l-0.37.68H99.86Zm-18.48-2.6H97.49c-1.6-2.46-4.41-6.77-6.46-9.91l0,0-1.42-2.38L88,35.23ZM169,67.81c-17.41,0-29.79-4.4-35.78-12.72A23.73,23.73,0,0,1,129,41.28a22.21,22.21,0,0,1,4-13.19c6.39-8.73,18.91-13.34,36.21-13.34,13.46,0,30.92,2.87,37.64,16.53a19.64,19.64,0,0,1,1.63,6.25L208.65,39H186.94L186.66,38a4.82,4.82,0,0,0-1-1.69c-1.92-2.43-7.24-4.94-16.59-4.94-8.91,0-15.33,2.25-17.61,6.16a7.31,7.31,0,0,0-.88,3.84,7,7,0,0,0,.94,3.7c2.38,3.82,9,6.11,17.56,6.11,9.4,0,15-1.59,17.15-4.85a2.84,2.84,0,0,0,.48-1.37l0.13-1.16h22l-0.24,1.51a28,28,0,0,1-1.79,6.72C201.87,62.66,189.49,67.81,169,67.81Zm0.25-50.47c-16.44,0-28.24,4.24-34.11,12.27a19.64,19.64,0,0,0-3.5,11.66,20.86,20.86,0,0,0,3.7,12.3c5.48,7.6,17.12,11.63,33.66,11.63,19.4,0,31-4.66,35.48-14.24h0a20.33,20.33,0,0,0,1.31-4.5H189.09a4.46,4.46,0,0,1-.72,1.43c-2.64,4-8.78,5.94-19.26,5.94-4.57,0-15.64-.72-19.78-7.36A9.54,9.54,0,0,1,148,41.4a9.8,9.8,0,0,1,1.25-5.17c2.8-4.79,9.85-7.44,19.85-7.44,8.72,0,15.67,2.19,18.57,5.86a7.05,7.05,0,0,1,1.11,1.69h16.92a15.85,15.85,0,0,0-1.19-4C199.69,22.56,187.48,17.34,169.24,17.34Zm164.12,50.4c-23,0-35.65-9.09-35.65-25.6V15.68h21.09v27.1c0,5.72,5.69,9,15.62,9,9.59,0,15.31-3.37,15.31-9V15.68h20.84V44.27C370.57,59.41,357.35,67.75,333.35,67.75Zm-33-49.46V42.15c0,20,20.71,23,33,23,12.93,0,34.61-2.71,34.61-20.87v-26H352.33V42.77c0,7.16-6.86,11.61-17.91,11.61-11.41,0-18.23-4.34-18.23-11.61V18.28H300.3ZM440.2,67.06H376.76V15.68h62.87V31.15H397.42V34h41.16V48.76H397.42v2.89H440.2V67.06Zm-60.83-2.6H437.6V54.26H394.81v-8.1H436V36.58H394.81v-8H437V18.28H379.37V64.46Zm332.89,2.6H688.6L673,49.13H654.77V67.06h-20.9V15.68h48c8.63,0,15,1.73,18.9,5.13,2.83,2.54,4.2,6,4.2,10.48a16.57,16.57,0,0,1-3.1,10.06h0a15.29,15.29,0,0,1-7.87,5Zm-22.47-2.6h16.69l-17.69-20,2.52-.26a12.65,12.65,0,0,0,8.49-4.52,13.92,13.92,0,0,0,2.52-8.43c0-3.78-1.05-6.49-3.32-8.53-3.36-2.92-9.3-4.48-17.18-4.48H636.47V64.46h15.7V46.53h22.07ZM679.58,38.33H652.17V27.8h27.09c3.27,0,5.75.45,7.25,2.62v0a4.74,4.74,0,0,1,.78,2.72,5,5,0,0,1-.7,2.76C685.47,37.91,683,38.33,679.58,38.33Zm-24.8-2.6h24.8c3.64,0,4.46-.56,4.8-1.16a2.51,2.51,0,0,0,.33-1.42,2.16,2.16,0,0,0-.34-1.27c-0.76-1.09-2.14-1.49-5.11-1.49H654.77v5.33ZM778.36,67.06H714.93V15.68H777.8V31.15H735.58V34h41.16V48.76H735.58v2.89h42.78V67.06Zm-60.83-2.6h58.23V54.26H733v-8.1h41.16V36.58H733v-8H775.2V18.28H717.53V64.46ZM848,67.06H784.56V15.68h62.87V31.15H805.21V34h41.16V48.76H805.21v2.89H848V67.06Zm-60.83-2.6h58.23V54.26H802.61v-8.1h41.16V36.58H802.61v-8h42.22V18.28H787.16V64.46Zm137.15,2.6H904.53L874.47,40.54V67.06H854.19V15.68h20.72l29.31,25.84V15.68h20.09V67.06Zm-18.8-2.6h16.19V18.28H906.82v29l-32.9-29H856.79V64.46h15.07V34.77ZM995,67.06H931.57V15.68h62.87V31.15H952.22V34h41.16V48.76H952.22v2.89H995V67.06Zm-60.83-2.6H992.4V54.26H949.62v-8.1h41.16V36.58H949.62v-8h42.22V18.28H934.17V64.46ZM586.52,67.81c-13.09,0-23.54-3.66-29.45-10.31-3.78-4.26-5.7-9.68-5.7-16.1a22.11,22.11,0,0,1,5.83-15.3c6.74-7.35,18.26-11.23,33.32-11.23,17.71,0,29.77,5.14,34.88,14.87a13.16,13.16,0,0,1,1.06,2.72l0.46,1.65h-21.2l-0.33-.22-0.69-.44c-2-1.37-6.84-2.81-14.38-2.81s-12.88,1.5-15.67,4.46a8.9,8.9,0,0,0-2.27,6.29,8.91,8.91,0,0,0,2.29,6.25c2.74,2.85,8.16,4.38,15.65,4.38,6.81,0,12.53-1.11,15.68-3.05l0.48-.28H585.91V35.6h41.45V67.06H609.78l-0.26-4.34C605.06,65.26,597.78,67.81,586.52,67.81Zm4-50.34c-14.1,0-25.25,3.69-31.39,10.38A19.58,19.58,0,0,0,554,41.4c0,5.77,1.7,10.6,5,14.38,5.4,6.08,15.17,9.43,27.51,9.43S606.09,62,610,59.38l1.9-1.31,0.38,6.39h12.52V38.2H588.51V46.1h23.11l-0.8,1.82a8.47,8.47,0,0,1-3.52,3.31c-3.53,2.18-9.59,3.4-17,3.4-8.33,0-14.23-1.75-17.55-5.21a11.57,11.57,0,0,1-3-8,11.42,11.42,0,0,1,3-8.07C576.08,29.82,582,28,590.33,28c6.9,0,12.8,1.2,15.78,3.22l0.39,0.24h16.87c-0.09-.19-0.17-0.37-0.27-0.54C618.53,22.26,607,17.47,590.52,17.47ZM481.8,67.81c-19,0-30.88-4.4-36.16-13.45A14.22,14.22,0,0,1,444,50l-0.34-1.58h22.78l0.37,0.67a6.4,6.4,0,0,0,1.09,1.4c1.34,1.25,6.18,2.62,15.69,2.62,12,0,13.5-1.21,13.5-2.26s-1.58-1.65-11-2.26c-3.07-.21-6.93-0.41-10.11-0.59l-4.12-.23c-19.07-1-27.58-5.82-27.58-15.54,0-8,9.44-17.41,36-17.41,21.44,0,30.32,6.49,34,11.94A19.86,19.86,0,0,1,516.79,32l0.47,1.66H494.41L494,33.11a5.33,5.33,0,0,0-.81-0.88c-0.68-.61-3.7-2.65-13.48-2.65-6.11,0-13.13.22-13.13,1.95,0,1.05,5.9,1.56,13,2.07l10.65,0.74,6.45,0.45h0C512,35.84,519.13,40.66,519.13,50,519.13,61.8,506.57,67.81,481.8,67.81ZM447,51.07a10.62,10.62,0,0,0,.9,2c4.78,8.18,15.87,12.16,33.91,12.16,23,0,34.73-5.13,34.73-15.25,0-5.21-2.27-11.35-20-12.57l-6.47-.45-10.65-.74c-12-.86-15.45-1.26-15.45-4.67,0-3.89,4.85-4.55,15.73-4.55,7.44,0,12.85,1.18,15.24,3.33,0.32,0.3.58,0.55,0.78,0.79H513.7a18.55,18.55,0,0,0-1.52-2.86c-3.3-4.9-11.52-10.77-31.82-10.77-23.09,0-33.42,7.44-33.42,14.81,0,5.39,2.86,11.74,25.13,12.94l4.12,0.23c3.19,0.17,7.07.38,10.14,0.59,10.12,0.67,13.39,1.19,13.39,4.86s-3.76,4.86-16.1,4.86c-6.35,0-14.55-.58-17.5-3.35A10.06,10.06,0,0,1,465,51.07H447ZM250.42,65.92h-0.07l0.07,1.3v-1.3Z"/>
</svg>
