<?xml version="1.0" encoding="utf-8"?>
<!-- Generator: Adobe Illustrator 20.1.0, SVG Export Plug-In . SVG Version: 6.00 Build 0)  -->
<svg version="1.1" id="Layer_1" xmlns="http://www.w3.org/2000/svg" xmlns:xlink="http://www.w3.org/1999/xlink" x="0px" y="0px"
	 viewBox="0 0 1000 430" style="enable-background:new 0 0 1000 430;" xml:space="preserve">
<style type="text/css">
	.st0{fill:#FFFFFF;}
</style>
<path class="st0" d="M282.4,310h5c13.9,0,19-10.2,20.8-18.7c1.4-6.5,1-10.9-0.9-13.4c-1.8-2.3-5.5-3.4-11.3-3.4h-6.2L282.4,310z
	 M287.5,317h-13.7l10.3-49.5h12c8,0,13.5,1.9,16.7,5.9c3.5,4.3,4.2,10.4,2.4,19.3C311.9,308.2,301.8,317,287.5,317 M291.1,414.2
	h41.8c-0.6-1-0.9-2-1.2-2.8l-0.2-0.5c-1.6-3.8-0.3-12.5,2.9-27l3.3-15.4c3-14.3,2.5-23.5-1.6-29c-3-4.1-8.4-6.5-16.3-7.2l-4.7-0.3
	l1.5-6.7l3-0.4c19.6-2.9,32-16.4,37-40.2c3.2-14.5,1.8-25.5-4.1-32.8c-5.9-7.3-16.6-11-31.7-11h-70.8l-36.9,173.6H253l15.4-72.3
	h15.2c3.7,0,9.1,0.5,12.4,4.5c3.6,4.4,3.9,11.6,0.9,25.5l-2.8,13.7C292.8,392.3,290.1,405.6,291.1,414.2 M341.2,421.2h-55.7
	l-0.7-2.6c-2.6-9.8,0.7-25.8,2.4-34.4l2.9-13.7c2.3-10.8,2.4-17.3,0.5-19.7c-0.7-0.8-2.1-1.9-6.9-1.9h-9.6l-15.4,72.3h-54.2
	l39.9-187.6h76.4c17.3,0,29.8,4.6,37.1,13.7c7.3,9,9.1,22,5.5,38.7c-4.6,21.7-14.8,35.9-30.4,42.4c3.6,1.7,6.5,4,8.6,6.9
	c5.4,7.3,6.3,18.3,2.8,34.7l-3.3,15.4c-1.1,5-4.3,20.1-3.2,22.9l0.3,0.7c0.6,1.6,0.9,2.4,2.2,3.1l2.3,1.2L341.2,421.2z M515.8,44.1
	c-11,0-15.1,9.4-25.6,59.2c-6.3,29.5-10.4,50.7-6.1,56c0.7,0.8,1.9,1.7,5.4,1.7c11,0,15.1-9.4,25.6-59.2c6.3-29.5,10.4-50.7,6.1-56
	C520.6,45,519.4,44.1,515.8,44.1 M489.5,168.1c-5,0-8.5-1.4-10.9-4.3c-6.1-7.5-3.4-23.8,4.7-61.9c10.2-48.1,14.7-64.7,32.5-64.7
	c5,0,8.5,1.4,10.9,4.3c6.1,7.5,3.4,23.8-4.7,61.9C511.8,151.4,507.4,168.1,489.5,168.1 M485.8,212.4h48.8l-21.8-24.3l4.2-2
	c22.4-10.9,36.3-36.1,46.6-84.2c8.6-40.1,7.8-63.7-2.6-76.5c-7.2-8.9-19.4-13-38.5-13c-45.5,0-66.7,23.8-81,91.1
	c-8.6,40.1-7.8,63.7,2.6,76.5c7.2,8.9,19.4,13,38.4,13.1l3.6,0L485.8,212.4z M550.4,219.5h-71.7l0.3-19.6
	c-19.3-0.6-32.2-5.5-40.3-15.6c-11.8-14.6-13-40-4-82.4c15-70.4,38.9-96.6,87.9-96.6c21.3,0,35.3,5,44,15.6c11.8,14.6,13,40,4,82.4
	c-10.2,47.7-24.2,74.1-46.3,86.9L550.4,219.5z M856.3,142.8l-0.7,3.5c-3.3,15.3-2,26.4,4,33.8c7,8.7,20.9,12.9,42.4,12.9
	c41,0,64.7-17.3,72.4-52.9c7.4-35.2-13.1-44.3-33-53.2c-14.6-6.5-29.7-13.2-25.9-31.1c1.7-9,9.1-18.7,21.4-18.7
	c4.3,0,7.8,1.6,10.2,4.6c3.4,4.2,4.3,11,2.6,19.2l0,0h36.7c3.1-16.9,1.6-28.8-4.5-36.4c-6.7-8.2-19.5-12.2-39.1-12.2
	c-37.4,0-60.2,18-67.9,53.6c-7.1,33.8,12.4,42.5,31.3,51c14.2,6.4,29,12.9,25.1,31c-2.5,12.1-11.4,20.2-22.2,20.2
	c-5.4,0-9.5-1.7-12.3-5c-3.5-4.4-4.3-11-2.3-20.2l0-0.1H856.3z M902,200c-23.8,0-39.5-5.1-47.9-15.5c-7.4-9.2-9.2-22.1-5.4-39.6
	l1.8-9.1h52.8l-2,8.6c-1.4,6.8-1.1,11.7,0.9,14.2c1.3,1.6,3.6,2.4,6.8,2.4c7.5,0,13.4-5.7,15.3-14.6c2.5-11.9-5.9-16.3-21.1-23.1
	c-18.4-8.2-43.5-19.4-35.3-58.8c8.3-38.7,34.2-59.2,74.8-59.2c21.9,0,36.5,4.8,44.6,14.8c7.9,9.8,9.7,24.5,5.4,45.1l-0.6,2.8h-51.3
	l2-8.6c1.2-5.8,0.8-10.7-1.2-13.2c-1.1-1.3-2.6-1.9-4.7-1.9c-8.3,0-13.3,6.6-14.5,13.1c-2.5,11.8,6.2,16.3,21.9,23.3
	c19.3,8.5,45.7,20.2,37.1,61C972.9,180.3,946.2,200,902,200 M721.8,189.4h102.1l6.6-31.4h-62.2l9.1-42.9h56.2l6.6-29.9h-56.1
	l7.8-37.9h60l6.8-31.4h-99.8L721.8,189.4z M829.5,196.4H713.1L753,8.8h114.2l-9.9,45.5h-59.9l-4.9,23.8h56.2l-9.6,44H783l-6.1,28.9
	h62.2L829.5,196.4z M610.1,15.8l-24.7,115.6c-4.9,23.4-3.6,39.4,4.2,48.9c7,8.6,19.6,12.6,39.7,12.6c41.5,0,62.3-18.2,71.7-63
	l24.4-114.1h-39.9l-27.2,127.5c-3.5,17.4-10.1,24.8-22.1,24.8c-5.2,0-8.9-1.4-11.3-4.4c-3.4-4.2-4-10.9-1.8-21.8l26.9-126H610.1z
	 M629.2,200c-22.4,0-36.7-4.8-45.2-15.2c-9.1-11.2-10.9-29.2-5.6-54.8L604.4,8.8h54.2l-28.7,134.5c-2.1,10.3-1,14.4,0.3,15.9
	c0.6,0.8,1.9,1.8,5.8,1.8c5.8,0,11.7-1.5,15.3-19.2L679.8,8.8H734l-26.2,122.6C697.7,179.5,674.2,200,629.2,200 M379.2,12.3
	c-46.1,0-66.6,23-81,91.1c-9.1,42.6-8.9,64.8,0.9,76.9c7,8.7,19.8,12.7,40.2,12.7c37.7,0,61.1-20.2,69.7-60l1.9-9.2h-38.4
	c-6.7,30.7-11.5,44.3-26.4,44.3c-5,0-8.5-1.4-10.9-4.3c-6.1-7.5-3.4-23.8,4.7-61.9c10.2-48.1,14.7-64.7,32.5-64.7
	c4.5,0,7.8,1.3,10,4c3.6,4.5,3.9,12.2,0.8,26.8l0,0.1l-1.3,5.8h38.3l1.9-8.6c3.8-18,2.2-31.5-4.8-40
	C410.4,16.6,397.6,12.3,379.2,12.3 M339.3,200c-22.7,0-37.2-4.9-45.7-15.3c-13.1-16.2-10.4-44.8-2.3-82.8
	c15.2-71.3,38.2-96.6,87.9-96.6c20.6,0,35.2,5.2,43.6,15.5c8.5,10.4,10.5,25.4,6.2,45.9l-3.2,14.2h-52.7l3.2-14.4
	c2.4-11.4,2.6-18.4,0.6-20.9c-0.5-0.6-1.5-1.4-4.5-1.4c-11,0-15.1,9.4-25.6,59.2c-6.3,29.5-10.4,50.7-6.1,56
	c0.7,0.8,1.9,1.7,5.4,1.7c8.2,0,12.5-6.3,20.1-41.5l0.6-2.8h52.7l-3.7,17.6C406.5,177.9,380.7,200,339.3,200 M203.3,122.4h17.8
	l2.5-53L203.3,122.4z M227.9,129.4h-34.8l32-83.7h6.6L227.9,129.4z M224.5,189.4h42.7l-5.4-173.6h-53.5l-79.2,173.6h42.2l11.6-31.6
	h43.6L224.5,189.4z M274.4,196.4H217l2-31.6h-31.2l-11.6,31.6h-58L203.8,8.8h64.8L274.4,196.4z M14.6,137.8l-0.2,1
	c-4.3,19.8-2.9,33.7,4.1,42.3c6.5,8,17.9,11.9,34.9,11.9c39.4,0,59.8-17.1,68.1-57.2l25.7-119.9h-39.9l-27.2,128
	c-3.7,16.8-9.9,24.3-20.1,24.3c-4.3,0-7.5-1.4-9.6-4c-3.3-4.1-3.7-11-1.4-21.8l0.9-4.6H14.6z M53.5,200c-19.3,0-32.5-4.7-40.4-14.5
	C4.6,175,2.8,159.3,7.6,137.3l1.3-6.6h49.7l-2.6,13.1c-2.4,10.9-1,14.6,0,15.9c0.5,0.6,1.4,1.4,4.2,1.4c3,0,9.1,0,13.3-18.7
	L101.7,8.8H156l-27.5,128.4C119.5,180,95.7,200,53.5,200 M777.7,414.2h102.1l6.6-31.4h-62.2l9.1-42.9h56.2l6.6-29.9h-56.1l7.8-37.9
	h60l6.8-31.4h-99.8L777.7,414.2z M885.5,421.2H769L809,233.6h114.2l-9.9,45.5h-59.9l-4.9,23.8h56.2l-9.6,44h-56.1l-6.1,28.9h62.2
	L885.5,421.2z M700.4,414.2h45.5l36.9-173.6h-36.8l-23.8,111.3h-6.7l-6.6-111.3h-46.5l-36.9,173.6h36.8l23.8-111.5h6.6L700.4,414.2z
	 M751.5,421.2h-57.7l-6.2-91.6L668,421.2h-51.2l39.9-187.6h58.8l5.4,90.6l19.4-90.6h51.2L751.5,421.2z M493.8,414.2h102.1l6.6-31.4
	h-62.2l9.1-42.9h56.2l6.6-29.9H556l7.8-37.9h60l6.8-31.4h-99.8L493.8,414.2z M601.6,421.2H485.1l39.9-187.6h114.2l-9.9,45.5h-59.9
	l-4.9,23.8h56.2l-9.6,44H555l-6.1,28.9h62.2L601.6,421.2z M362.1,414.2h102.1l6.6-31.4h-62.2l9.1-42.9h56.2l6.6-29.9h-56.1l7.8-37.9
	h60l6.8-31.4H399L362.1,414.2z M469.8,421.2H353.4l39.9-187.6h114.2l-9.9,45.5h-59.9l-4.9,23.8h56.2l-9.6,44h-56.1l-6.1,28.9h62.2
	L469.8,421.2z M165.7,237.1c-54.1,0-71.2,32-83.8,91.1c-7.4,35.1-12.7,65.4-1.3,79.4c5.6,6.9,15.4,10.2,30,10.2
	c19.2,0,32.6-6,40-17.8l1-1.7h6.5l-2.3,15.9h25l19.3-91.1h-53.5l-5.1,24.8h16.8l-1,4.3c-6.7,30-13.9,40.7-27.5,40.7
	c-5,0-8.5-1.4-10.9-4.3c-6.1-7.5-3.4-23.8,4.7-61.9c10.2-48.1,14.7-64.7,33.5-64.7c7.3,0,11.9,4,12.6,11c0.7,4.1,0.3,9.7-1,17.8
	h38.4c3.3-18.2,1.4-31.9-5.9-40.8C194.3,241.4,182.3,237.1,165.7,237.1 M110.6,424.8c-16.9,0-28.5-4.2-35.5-12.8
	c-13.3-16.5-8.2-47-0.1-85.3c13.1-61.2,32.1-96.6,90.7-96.6c18.8,0,32.6,5.2,41,15.4c9,11.1,11.3,27.7,6.7,49.5l-0.6,2.8h-52.6
	l0.8-4.2c1.8-9.3,2.4-15.8,1.7-19.8c-0.4-3.5-2-4.9-5.6-4.9c-12,0-16,8.9-26.7,59.2c-6.3,29.5-10.4,50.7-6.1,56
	c0.7,0.8,1.9,1.7,5.4,1.7c6.1,0,12.7-2.5,19.6-30.9h-16.6l8-38.9h67.9l-22.2,105.2h-38.8l1.2-8.6C139.9,420.7,127,424.8,110.6,424.8
	"/>
</svg>
