<svg id="Layer_1" data-name="Layer 1" xmlns="http://www.w3.org/2000/svg" xmlns:xlink="http://www.w3.org/1999/xlink" width="1440" height="150" viewBox="0 0 1440 150">
  <defs>
    <style>
      .cls-1 {
        fill: none;
      }

      .cls-2 {
        clip-path: url(#clip-path);
      }

      .cls-3 {
        fill: white;
      }
    </style>
    <clipPath id="clip-path">
      <rect id="SVGID" class="cls-1" x="1" y="4.09" width="1438" height="123.27"/>
    </clipPath>
  </defs>
  <title>SVGs</title>
  <g class="cls-2">
    <path class="cls-3" d="M1438.87,127.22H1285.4V4.22h152V36.47h-106.7v14h104V81h-104V95.14h108.12Zm-147.47-6h141.47V101.14H1324.74V75h104V56.47h-104v-26h106.7V10.22h-140Zm-25.92,6H1221.4V63.4l-36.52,63.82h-38.67l-35.88-63.83v63.83h-44.08V4.22h59l40.64,73.85.12-.21,42.1-73.64h57.4Zm-38.08-6h32.08v-111h-47.92l-45.8,80.12-44.09-80.12h-49.43v111h32.08V40.47l45.39,80.75h31.68l46-80.39Zm-183.7,6H996.46V4.22h47.24Zm-41.24-6h35.24v-111h-35.24Zm-82.63,6H872.75V36.31H808V4.22H984.54V36.31H919.83Zm-41.08-6h35.08V30.31h64.71V10.22H814V30.31h64.71Zm-152.58,6h-137V4.22h46.13V92.3h90.92Zm-131-6h125V98.3H629.25V10.22H595.12Zm-17.43,6h-50.5l-12.63-19.41H425.07l0,.06L412,127.22H362.74l83.16-123h52.73Zm-47.25-6h36.26l-71.35-111H449.08l-75,111h34.75l13.1-19.41h95.93Zm-176.14,6H200.83V4.22h152V36.47H246.18v14h104V81h-104V95.14H354.3Zm-147.46-6H348.3V101.14H240.18V75h104V56.47h-104v-26h106.7V10.22h-140Zm-18.62,6H137.59L98.23,81.92H47.11v45.3h-46V4.22H118.91c20.67,0,36.4,4.18,45.49,12.09,6.47,5.82,9.46,13.41,9.46,23.92,0,9-2.64,17.73-7.06,23.26a35.13,35.13,0,0,1-23.6,12.59l-.26,0Zm-47.88-6h34.55L130.69,71.34l11.89-1.22a29.06,29.06,0,0,0,19.54-10.39c3.59-4.48,5.73-11.78,5.73-19.5,0-8.69-2.36-14.86-7.44-19.43-7.94-6.91-22.31-10.58-41.51-10.58H7.14v111h34V75.92H101Zm356-42.77H443.86l20.06-29.94,6.67-10.4,6.17,10.34c5.44,8.31,12.62,19.32,16.53,25.37Zm-41.19-6h30.15c-4-6.14-9.31-14.28-13.55-20.76l-.07-.1-1.23-2.07-1.47,2.29ZM113.22,54.62H47.38V34.84h65.05c7.38,0,12.55.86,15.52,5.15a8.52,8.52,0,0,1,1.4,5,9.4,9.4,0,0,1-1.2,5.07C126.19,53.38,122.14,54.62,113.22,54.62Zm-59.84-6h59.84c7.67,0,9.4-1,9.75-1.62l.07-.12a4.42,4.42,0,0,0,.3-1.92,2.57,2.57,0,0,0-.36-1.6c-1-1.5-3.24-2.52-10.55-2.52H53.38Z"/>
  </g>
</svg>
