<svg id="Layer_1" data-name="Layer 1" xmlns="http://www.w3.org/2000/svg" xmlns:xlink="http://www.w3.org/1999/xlink" width="1440" height="110" viewBox="0 0 1440 110">
  <defs>
    <style>
      .cls-1 {
        fill: none;
      }

      .cls-2 {
        clip-path: url(#clip-path);
      }

      .cls-3 {
        fill: #231f20;
      }
    </style>
    <clipPath id="clip-path">
      <rect class="cls-1" y="2.5" width="1439" height="90.62"/>
    </clipPath>
  </defs>
  <title>SVGs</title>
  <g class="cls-2">
    <path class="cls-3" d="M415.54,93H356.48V81.36c-20.44-.6-35.64-5.57-45.2-14.77C304.46,60.07,301,51.74,301,41.84a31,31,0,0,1,9.75-23.3c10.7-10.71,27.06-15.93,50-15.93s39.33,4.85,49.79,14.84c6.78,6.49,9.93,14.3,9.93,24.57,0,10-3.3,18.31-9.82,24.73-4.77,4.86-11.44,8.56-19.88,11Zm-54.06-5h36.38l-20.17-12.4,6.17-1.28c10.27-2.13,18.08-5.87,23.23-11.12,5.55-5.47,8.35-12.59,8.35-21.19,0-8.82-2.67-15.48-8.39-21C397.58,12,382.42,7.61,360.72,7.61c-21.52,0-36.72,4.74-46.48,14.5A25.91,25.91,0,0,0,306,41.84c0,8.6,2.86,15.51,8.75,21.14,9,8.67,23.89,13.18,44.27,13.43l2.47,0V88Zm483.66-6.47c-19.18,0-34.53-5.39-43.22-15.17-5.59-6.31-8.43-14.31-8.43-23.79A32.71,32.71,0,0,1,802.11,20C812,9.15,828.91,3.45,850.94,3.45c18.1,0,41.68,3.8,51.19,21.93a19.46,19.46,0,0,1,1.59,4.07l0.88,3.17H872.84l-0.62-.41-1-.63-0.1-.06c-2.68-1.81-9.64-3.92-20.46-3.92s-18.37,2.12-22.3,6.29a12.32,12.32,0,0,0-3.13,8.71,12.34,12.34,0,0,0,3.17,8.66c3.85,4,11.57,6.16,22.27,6.16,8.89,0,16.45-1.31,21.13-3.62H843.64V33.56H905v46.9H878.33L878,74.54C871.37,78.11,860.91,81.54,845.14,81.54Zm5.8-73.1c-20.3,0-36.33,5.28-45.14,14.88a27.84,27.84,0,0,0-7.32,19.26c0,8.22,2.41,15.11,7.17,20.47,7.73,8.7,21.75,13.49,39.49,13.49s28.14-4.54,33.68-8.36l3.65-2.51L883,75.45h17V38.56H848.64V48.79h33.88L881,52.29c-1,2.28-3.77,4.24-5.31,5.07-5.34,3.25-14.21,5-25,5-12.26,0-21-2.61-25.93-7.75a17.4,17.4,0,0,1-4.51-12.07,17.15,17.15,0,0,1,4.48-12.13c4.92-5.22,13.65-7.87,26-7.87,10.1,0,18.76,1.77,23.21,4.75l0.45,0.28h23.33C891.09,15.24,874.51,8.45,850.94,8.45ZM693.07,81.54c-27.89,0-45.24-6.49-53-19.83a21.28,21.28,0,0,1-2.43-6.44l-0.66-3h34.2l0.71,1.29a8.73,8.73,0,0,0,1.48,1.89c1.84,1.72,8.73,3.62,22.36,3.62,15.7,0,19-1.45,19-2.67a1.29,1.29,0,0,0,0-.44c-1-1.3-11.39-2-15.3-2.24-4.43-.3-10.09-0.6-14.64-0.85l-6-.33c-28.09-1.51-40.62-8.66-40.62-23.17,0-15.73,20.77-25.9,52.92-25.9,31.41,0,44.45,9.58,49.87,17.61a29.52,29.52,0,0,1,3.62,7.78l0.9,3.18H711l-0.74-1.14a7.37,7.37,0,0,0-1.08-1.16c-2-1.76-8-3.68-19.15-3.68-16.05,0-18.45,1.39-18.45,2.22v0c1.65,1.18,12.07,1.93,18.36,2.38,4.39,0.29,10.42.72,15.51,1.08l9.32,0.65h0c14.2,1,33.07,4.39,33.07,22.63C747.9,72.62,729.45,81.54,693.07,81.54Zm-49.68-24.3a14.69,14.69,0,0,0,1,2c6.82,11.67,22.76,17.35,48.72,17.35,33.06,0,49.83-7.25,49.83-21.53,0-7.3-3.23-15.9-28.4-17.64h0l-9.36-.65c-5.08-.36-11.11-0.78-15.5-1.07-16.75-1.2-23-1.65-23-7.39,0-6.17,7.23-7.22,23.45-7.22,11,0,19,1.77,22.53,5,0.4,0.37.72,0.69,1,1h24.86a27.07,27.07,0,0,0-1.78-3.21C732,16.82,720.19,8.45,691,8.45c-23.85,0-47.92,6.46-47.92,20.9,0,7.56,4.08,16.47,35.91,18.18l6,0.33c4.56,0.25,10.24.55,14.7,0.85,13.88,0.91,20,1.57,20,7.66,0,6.52-7.74,7.67-24,7.67-9.33,0-21.39-.87-25.83-5a15.89,15.89,0,0,1-1.55-1.77H643.39ZM238.84,81.54c-25.49,0-43.63-6.47-52.45-18.72A35.07,35.07,0,0,1,180.2,42.4a32.87,32.87,0,0,1,5.92-19.52C195.52,10,213.87,3.26,239.21,3.26c35.73,0,49.75,13.24,55.21,24.34a29.13,29.13,0,0,1,2.42,9.28l0.29,2.76H264.46l-0.54-1.78a6.34,6.34,0,0,0-1.27-2.21l-0.11-.13c-2.5-3.16-10.16-6.85-23.52-6.85-12.71,0-21.84,3.15-25,8.65a10,10,0,0,0-1.2,5.27,9.58,9.58,0,0,0,1.28,5.06c3.34,5.36,12.69,8.58,25,8.58,13.42,0,21.4-2.21,24.39-6.76l0.12-.16a3.57,3.57,0,0,0,.49-1.55l0.25-2.22h33.19L297,48.42a40.06,40.06,0,0,1-2.66,9.93C287,74,268.88,81.54,238.84,81.54Zm0.36-73.28c-23.67,0-40.63,6.07-49,17.57a27.91,27.91,0,0,0-5,16.57,29.69,29.69,0,0,0,5.25,17.51c7.83,10.87,24.57,16.63,48.38,16.63,27.9,0,44.58-6.65,51-20.33v0a26.72,26.72,0,0,0,1.7-5.66H268.47a6.86,6.86,0,0,1-.93,1.76c-4.06,6.1-13.13,8.94-28.52,8.94-6.73,0-23.06-1.07-29.24-11a14.46,14.46,0,0,1-2-7.67,14.81,14.81,0,0,1,1.9-7.82c4.17-7.15,14.6-11.1,29.35-11.1,12.8,0,23,3.24,27.39,8.68A11.37,11.37,0,0,1,268,34.64h23.46a21.88,21.88,0,0,0-1.55-4.89C283,15.71,265.45,8.26,239.21,8.26ZM477.52,81.45c-33.78,0-52.38-13.42-52.38-37.78v-39H457v40C457,52.5,465,57,479.06,57c13.54,0,21.62-4.66,21.62-12.46v-40h31.48V46.76C532.16,59.71,525.06,81.45,477.52,81.45ZM430.14,9.62v34c0,28.52,29.68,32.78,47.38,32.78,18.54,0,49.65-3.86,49.65-29.7V9.62H505.68v35c0,10.77-10.2,17.46-26.62,17.46C462.1,62,452,55.52,452,44.58v-35H430.14ZM24.47,81.45c-10,0-20.5-.63-22.17-0.83l-2.19-.27V55.48L3,55.89c1.1,0.13,11.43.25,17.33,0.25C31,56.14,31.85,48.4,31.85,46V4.62H63.7V49.75C63.7,69,48.3,81.45,24.47,81.45ZM5.11,75.83c3.77,0.25,11.6.63,19.36,0.63C45.26,76.45,58.7,66,58.7,49.75V9.62H36.85V46c0,7-4.34,15.11-16.56,15.11-1.61,0-10.44,0-15.19-.16V75.83Zm1433.78,4.63h-93.33V4.62h92.52V28.31h-61.3V31.2h59.76V53.88h-59.76v3h62.12V80.45Zm-88.33-5h83.33V61.86h-62.12v-13h59.76V36.2h-59.76V23.31h61.3V9.62h-82.52V75.45Zm-14.32,5h-29.56l-42.81-37.77V80.45H1233.2V4.62h30.92l41.72,36.78V4.62h30.39V80.45Zm-27.67-5h22.67V9.62h-20.39V52.47L1262.24,9.62h-24V75.45h20.67V31.6Zm-83.14,5h-93.33V4.62h92.51V28.31H1163.3V31.2h59.76V53.88H1163.3v3h62.12V80.45Zm-88.33-5h83.33V61.86H1158.3v-13h59.76V36.2H1158.3V23.31h61.31V9.62h-82.51V75.45Zm-12.78,5H1031V4.62h92.51V28.31h-61.3V31.2H1122V53.88h-59.76v3h62.12V80.45Zm-88.33-5h83.33V61.86h-62.12v-13H1117V36.2h-59.76V23.31h61.3V9.62H1036V75.45Zm-6.91,5h-36l-22.58-26H944.85v26H913.28V4.62h70.25c12.69,0,22.06,2.56,27.85,7.6,4.25,3.82,6.3,8.94,6.3,15.67,0,5.76-1.73,11.36-4.63,15h0a22.54,22.54,0,0,1-10.82,7.25Zm-33.71-5H1018L992.39,46.58l4.84-.5a17.74,17.74,0,0,0,11.92-6.34c2.21-2.77,3.52-7.19,3.52-11.85,0-5.3-1.47-9.09-4.61-11.93-4.76-4.14-13.25-6.34-24.54-6.34H918.28V75.45h21.57v-26h32.93Zm-362.09,5H539.94V4.62h92.52V28.31H571.15V31.2h59.77V53.88H571.15v3h62.12V80.45Zm-88.33-5h83.33V61.86H566.15v-13h59.77V36.2H566.15V23.31h61.31V9.62H544.94V75.45Zm-355.11,5H154.7L147.44,69.3H98.8L91.27,80.45H56.75L108,4.62h33.07Zm-32.43-5h23.27L138.36,9.62H110.68L66.17,75.45H88.61L96.14,64.3h54ZM360.63,61.84c-24,0-32.52-10.19-32.52-19.73,0-9,8.49-19.55,32.43-19.55,24.18,0,32.79,10.1,32.79,19.55S384.74,61.84,360.63,61.84Zm-0.09-34.28c-20.24,0-27.43,7.84-27.43,14.55,0,9.09,10.54,14.73,27.52,14.73,13.39,0,27.7-3.87,27.7-14.73C388.33,35.08,381,27.56,360.54,27.56ZM138.46,52.43H103.39l14.22-21.21,6.05-9.43,5.67,9.5,5.61,8.59,3.87,6c2.41,3.73,2.56,4,1.84,5.28l-0.71,1.31h-1.49Zm-25.7-5H133.9c-2.37-3.66-6-9.27-8.77-13.45l-0.05-.09-1.56-2.61L121.79,34Zm867.5-8.69H939.85V22.22h40c4.27,0,8.56.49,11,4.07l0,0a7.48,7.48,0,0,1,1.24,4.29A7.91,7.91,0,0,1,991,34.9C989.16,38.08,985.37,38.74,980.26,38.74Zm-35.41-5h35.41c5.08,0,6.11-.78,6.45-1.37l0.06-.1a3,3,0,0,0,.33-1.65,2.47,2.47,0,0,0-.39-1.5c-0.8-1.14-2.29-1.9-6.91-1.9h-35v6.52Z"/>
  </g>
</svg>
