<svg id="Layer_1" data-name="Layer 1" xmlns="http://www.w3.org/2000/svg" xmlns:xlink="http://www.w3.org/1999/xlink" width="1440" height="110" viewBox="0 0 1440 110">
  <defs>
    <style>
      .cls-1 {
        fill: none;
      }

      .cls-2 {
        clip-path: url(#clip-path);
      }

      .cls-3 {
        fill: #231f20;
      }
    </style>
    <clipPath id="clip-path">
      <rect class="cls-1" y="2.5" width="1439" height="82.76"/>
    </clipPath>
  </defs>
  <title>SVGs</title>
  <g class="cls-2">
    <path class="cls-3" d="M476,85.16c-26.3,0-45-6.79-54.1-19.64a37.15,37.15,0,0,1-6.36-21.36,34.81,34.81,0,0,1,6.08-20.42c9.68-13.46,28.61-20.58,54.75-20.58,20.34,0,46.73,4.43,56.93,25.52a30.85,30.85,0,0,1,2.48,9.69l0.28,2.76H502.54L502,39.34A6.83,6.83,0,0,0,500.67,37l-0.11-.13C498,33.5,490,29.61,476.23,29.61c-13.15,0-22.59,3.33-25.92,9.13a10.85,10.85,0,0,0-1.26,5.62,10.35,10.35,0,0,0,1.34,5.4c3.47,5.66,13.14,9.06,25.84,9.06,13.88,0,22.14-2.34,25.24-7.14l0.11-.16a3.9,3.9,0,0,0,.53-1.71l0.24-2.23h34.09L536,50.46c-0.4,2.58-1.3,7.35-2.73,10.39C525.74,77.21,507,85.16,476,85.16Zm0.38-77c-24.46,0-42,6.39-50.68,18.49a29.85,29.85,0,0,0-5.15,17.5A31.74,31.74,0,0,0,426,62.65c8.1,11.45,25.4,17.51,50,17.51,28.83,0,46.07-7,52.69-21.41v0a29.07,29.07,0,0,0,1.8-6.15h-24a7.17,7.17,0,0,1-1,1.88c-4.18,6.39-13.52,9.36-29.39,9.36-14.67,0-25.65-4.19-30.13-11.49a15.23,15.23,0,0,1-2.05-8A15.62,15.62,0,0,1,446,36.23c4.29-7.48,15-11.62,30.24-11.62,13.2,0,23.75,3.4,28.23,9.09a11.88,11.88,0,0,1,1.63,2.43h24.37a23.54,23.54,0,0,0-1.64-5.33C521.67,16,503.54,8.17,476.42,8.17Zm-292,77c-23.29,0-40.44-5.24-51-15.58-7-6.82-10.58-15.54-10.58-25.89,0-9.7,3.37-17.9,10-24.37C143.9,8.08,160.78,2.6,184.42,2.6S225,7.69,235.78,18.17h0c7,6.79,10.21,15,10.21,25.71,0,10.46-3.4,19.16-10.09,25.87C226.06,80,208.73,85.16,184.42,85.16Zm0-77.56c-22.23,0-37.93,5-48,15.26-5.77,5.61-8.55,12.41-8.55,20.83,0,9.08,3,16.38,9.07,22.31,9.59,9.4,25.57,14.16,47.5,14.16,22.9,0,39-4.68,47.92-13.91C238.09,60.48,241,53,241,43.88c0-9.31-2.76-16.34-8.7-22.12h0C222.49,12.23,206.83,7.6,184.42,7.6ZM306.79,85.06c-16.36,0-29.34-3.13-38.58-9.31C258,68.93,252.8,58.75,252.8,45.5V4.6h32.71V46.45c0,8.4,8.34,13.22,22.87,13.22,14,0,22.4-4.94,22.4-13.22V4.6h32.34V48.74C363.12,62.3,355.81,85.06,306.79,85.06ZM257.8,9.6V45.5c0,30.07,30.7,34.56,49,34.56,19.17,0,51.33-4.07,51.33-31.33V9.6H335.78V46.45c0,11.24-10.5,18.22-27.4,18.22-17.45,0-27.87-6.81-27.87-18.22V9.6H257.8ZM1386.65,84h-32.43V58.14L1302,4.6h39.45L1370.85,34l29.3-29.45h38.61L1386.65,58V84Zm-27.43-5h22.43V56L1426.9,9.6h-24.68l-31.37,31.53L1339.39,9.6h-25.52l45.35,46.5V79Zm-58,5h-30.42l-44.29-39.77V84H1195V4.6h31.82L1270,43.33V4.6h31.22V84Zm-28.51-5h23.51V9.6H1275V54.53L1224.88,9.6H1200V79h21.49V33Zm-85.82,5h-96.19V4.6H1186V29.23h-63.29v3.29h61.7V56.1h-61.7v3.38h64.13V84Zm-91.19-5h86.19V64.48h-64.13V51.1h61.7V37.52h-61.7V24.23H1181V9.6h-85.35V79ZM1038,84H973.45V4.6H1038c21.42,0,35.59,6.38,42.1,19,2.85,5.32,4.31,11.88,4.31,19.44,0,7.85-1.41,15-4.08,20.6C1073.92,77.16,1059.67,84,1038,84Zm-59.57-5H1038c19.56,0,32.28-5.9,37.81-17.54,2.35-5,3.6-11.35,3.6-18.46,0-6.74-1.25-12.49-3.73-17.11C1070.1,15.08,1057.42,9.6,1038,9.6H978.45V79ZM884.1,84H851V29.13H812.63V4.6H922.49V29.13H884.1V84ZM856,79H879.1V24.13h38.39V9.6H817.63V24.13H856V79Zm-83.61,5H742L697.7,44.24V84H666.2V4.6H698l43.17,38.73V4.6h31.21V84Zm-28.5-5h23.5V9.6H746.19V54.53L696.11,9.6H671.2V79h21.5V33Zm-79.46,5H628.4L620.9,72.3H570.63L562.85,84h-35.4L580.21,4.6h34.08Zm-33.31-5h24.24L611.53,9.6H582.89L536.78,79h23.39l7.77-11.72h55.7ZM84.88,84H52.44V58.14L0.24,4.6H39.69L69.08,34,98.38,4.6H137L84.88,58V84ZM57.44,79H79.88V56L125.13,9.6H100.46L69.08,41.13,37.62,9.6H12.1l45.35,46.5V79Zm976-14.06h-32.56V23.56h32.93c6.93,0,16.65,1,21,9.47l0.06,0.13a28,28,0,0,1,2.08,10.66h0c0.1,4.88-.63,8.79-2.24,12C1051.25,62.06,1044.51,65,1033.43,65Zm-27.56-5h27.56c11.89,0,15.29-3.71,16.81-6.51,1.19-2.35,1.75-5.48,1.67-9.51h0a23.24,23.24,0,0,0-1.64-8.71c-2.37-4.61-7.46-6.67-16.46-6.67h-27.93V60ZM184.32,64.58c-24.69,0-33.49-10.64-33.49-20.6,0-9.42,8.75-20.41,33.4-20.41C209.13,23.56,218,34.11,218,44S209.15,64.58,184.32,64.58Zm-0.09-36c-21,0-28.4,8.3-28.4,15.41,0,9.63,10.92,15.6,28.49,15.6,13.86,0,28.68-4.1,28.68-15.6C213,36.52,205.44,28.56,184.23,28.56Zm427.37,26h-36L590.13,32.5l6.19-9.82,5.8,9.88,5.8,9,4,6.26c2.5,3.94,2.6,4.09,1.88,5.42l-0.71,1.3H611.6Zm-26.73-5h22.21c-2.45-3.84-6.32-9.87-9.19-14.35l-0.05-.09-1.67-2.84-1.83,2.91Zm220-10.52H778.74V4.6h26.17V39.06Zm-21.17-5h16.17V9.6H783.74V34.06Z"/>
  </g>
</svg>
